<svg width="100" height="98" viewBox="0 0 100 98" fill="none" xmlns="http://www.w3.org/2000/svg">
<ellipse cx="49.5052" cy="49" rx="49.5052" ry="49" fill="#54B178"/>
<path d="M16.2222 19.7206L22.3458 16H74.5161L83.7778 19.7206H16.2222ZM16.2222 82V55.3088H12V46.4118L16.2222 24.1691H83.7778L88 46.4118V55.3088H83.7778V82H75.3333V55.3088H58.4444V82H16.2222ZM24.6667 73.1029H50V55.3088H24.6667V73.1029ZM20.6556 46.4118H79.3444L76.8111 33.0662H23.1889L20.6556 46.4118Z" fill="white"/>
<circle cx="51" cy="58" r="6" fill="white"/>
<g filter="url(#filter0_d_17_12)">
<path d="M38.25 71.9167C37.1271 71.9167 36.1658 71.5169 35.3662 70.7172C34.5665 69.9176 34.1667 68.9563 34.1667 67.8334V47.4167C34.1667 46.2938 34.5665 45.3325 35.3662 44.5328C36.1658 43.7332 37.1271 43.3334 38.25 43.3334H40.2917V39.25C40.2917 36.4257 41.287 34.0182 43.2776 32.0276C45.2683 30.037 47.6757 29.0417 50.5 29.0417C53.3243 29.0417 55.7318 30.037 57.7224 32.0276C59.713 34.0182 60.7084 36.4257 60.7084 39.25V43.3334H62.75C63.8729 43.3334 64.8342 43.7332 65.6339 44.5328C66.4335 45.3325 66.8334 46.2938 66.8334 47.4167V67.8334C66.8334 68.9563 66.4335 69.9176 65.6339 70.7172C64.8342 71.5169 63.8729 71.9167 62.75 71.9167H38.25ZM50.5 61.7084C51.6229 61.7084 52.5842 61.3085 53.3839 60.5089C54.1835 59.7092 54.5834 58.7479 54.5834 57.625C54.5834 56.5021 54.1835 55.5408 53.3839 54.7412C52.5842 53.9415 51.6229 53.5417 50.5 53.5417C49.3771 53.5417 48.4158 53.9415 47.6162 54.7412C46.8165 55.5408 46.4167 56.5021 46.4167 57.625C46.4167 58.7479 46.8165 59.7092 47.6162 60.5089C48.4158 61.3085 49.3771 61.7084 50.5 61.7084ZM44.375 43.3334H56.625V39.25C56.625 37.5486 56.0295 36.1025 54.8386 34.9115C53.6476 33.7205 52.2014 33.125 50.5 33.125C48.7986 33.125 47.3525 33.7205 46.1615 34.9115C44.9705 36.1025 44.375 37.5486 44.375 39.25V43.3334Z" fill="#C80000"/>
</g>
<defs>
<filter id="filter0_d_17_12" x="31.1667" y="27.0417" width="38.6667" height="48.875" filterUnits="userSpaceOnUse" color-interpolation-filters="sRGB">
<feFlood flood-opacity="0" result="BackgroundImageFix"/>
<feColorMatrix in="SourceAlpha" type="matrix" values="0 0 0 0 0 0 0 0 0 0 0 0 0 0 0 0 0 0 127 0" result="hardAlpha"/>
<feOffset dy="1"/>
<feGaussianBlur stdDeviation="1.5"/>
<feComposite in2="hardAlpha" operator="out"/>
<feColorMatrix type="matrix" values="0 0 0 0 0 0 0 0 0 0 0 0 0 0 0 0 0 0 0.25 0"/>
<feBlend mode="normal" in2="BackgroundImageFix" result="effect1_dropShadow_17_12"/>
<feBlend mode="normal" in="SourceGraphic" in2="effect1_dropShadow_17_12" result="shape"/>
</filter>
</defs>
</svg>
